<svg width="116" height="25" viewBox="0 0 116 25" fill="none" xmlns="http://www.w3.org/2000/svg">
<path d="M32.2388 8.0498H34.9399V7.63663C34.9399 6.34456 35.055 5.2585 35.2852 4.37845C35.5153 3.4984 35.9028 2.78753 36.4476 2.24584C36.9847 1.70876 37.6998 1.32205 38.5929 1.08574C39.4859 0.849419 40.5985 0.734329 41.9304 0.740467H42.2757V4.80773C41.7393 4.79882 41.203 4.83076 40.6714 4.90325C40.2789 4.96655 39.9808 5.09891 39.7817 5.30032C39.5608 5.54292 39.4218 5.84896 39.3847 6.175C39.3133 6.6704 39.2813 7.1707 39.2891 7.67116V8.0521H42.2814V11.9651H39.2891V23.9402H34.9399V11.9582H32.2388V8.0498Z" fill="white"/>
<path d="M48.1856 8.0498H43.8318V23.9402H48.1856V8.0498Z" fill="white"/>
<path d="M50.0764 8.04953H54.4015V9.82881C54.9052 9.17642 55.5527 8.64906 56.2936 8.28776C57.0705 7.91137 57.9243 7.72105 58.7875 7.73188C60.6742 7.73188 62.147 8.30387 63.2058 9.44786C64.2647 10.5919 64.794 12.1916 64.794 14.2471V23.9399H60.3769V14.8191C60.3769 13.7388 60.1333 12.9071 59.6461 12.324C59.1589 11.7408 58.427 11.4504 57.4502 11.4527C57.0519 11.4478 56.6568 11.5257 56.2901 11.6814C55.9234 11.8371 55.593 12.0673 55.3199 12.3573C54.7276 12.9619 54.431 13.9314 54.4303 15.2656V23.9422H50.0764V8.04953Z" fill="white"/>
<path d="M73.2049 24.2582C72.3075 24.2484 71.4192 24.076 70.5832 23.7495C69.6681 23.402 68.827 22.8846 68.1042 22.2245C67.3198 21.5022 66.6929 20.6257 66.2628 19.65C65.7848 18.6119 65.5461 17.3935 65.5469 15.9947C65.5476 14.596 65.7809 13.378 66.2466 12.3407C66.6691 11.3635 67.2854 10.4822 68.0582 9.75C68.7763 9.0782 69.6247 8.56111 70.551 8.23081C71.4219 7.91114 72.3416 7.74449 73.2694 7.73823C74.2119 7.71991 75.1479 7.89825 76.0177 8.26189C76.7621 8.57702 77.4372 9.03576 78.0042 9.61189V0.75H82.358V23.9405H78.0042V22.1566C77.4438 22.795 76.7562 23.3093 75.9855 23.6666C75.1155 24.0721 74.1647 24.2744 73.2049 24.2582ZM74.0635 20.2542C74.6265 20.2601 75.1844 20.1464 75.7001 19.9204C76.1876 19.7051 76.6256 19.3917 76.9868 18.9997C77.3512 18.6011 77.637 18.1372 77.8292 17.6325C78.033 17.1003 78.1353 16.5347 78.1308 15.9648C78.1352 15.3946 78.0329 14.8286 77.8292 14.296C77.6391 13.7951 77.3529 13.3361 76.9868 12.9449C76.6219 12.561 76.1846 12.2531 75.7001 12.0391C75.1844 11.8132 74.6265 11.6994 74.0635 11.7054C73.4811 11.6996 72.9033 11.8079 72.3625 12.0242C71.857 12.2264 71.3978 12.5291 71.0125 12.9138C70.6275 13.2991 70.3245 13.7583 70.1217 14.2638C69.9063 14.8048 69.7988 15.3826 69.8052 15.9648C69.7987 16.5467 69.9062 17.1242 70.1217 17.6647C70.3247 18.1704 70.6277 18.6299 71.0125 19.0158C71.4005 19.4013 71.8587 19.7088 72.3625 19.9216C72.9009 20.1473 73.4797 20.2605 74.0635 20.2542Z" fill="white"/>
<path d="M91.5546 24.2577C90.394 24.2749 89.2423 24.0532 88.171 23.6062C87.1988 23.1961 86.3182 22.5963 85.5804 21.8419C84.8544 21.0915 84.2916 20.1988 83.9277 19.2202C83.5413 18.19 83.3462 17.0979 83.3522 15.9977C83.3452 14.8917 83.5612 13.7957 83.9875 12.7752C84.3956 11.7924 84.9954 10.9007 85.7518 10.1523C86.5091 9.40734 87.3981 8.80948 88.3736 8.38912C89.3867 7.95146 90.4798 7.72961 91.5834 7.73771C92.713 7.72646 93.8327 7.94821 94.8727 8.38912C95.8538 8.80557 96.7406 9.41629 97.4794 10.1845C98.2144 10.9514 98.7979 11.8503 99.1989 12.8339C99.6151 13.8569 99.8255 14.952 99.8181 16.0564V17.4536H87.5196C87.7184 18.3331 88.2043 19.1215 88.9007 19.6944C89.5912 20.256 90.4862 20.5368 91.5857 20.5368C92.475 20.5368 93.1847 20.3672 93.7149 20.0281C94.2448 19.6891 94.6647 19.2033 94.9233 18.6298H99.5626C98.9273 20.3899 97.9475 21.7671 96.6232 22.7615C95.2989 23.7559 93.6094 24.2546 91.5546 24.2577ZM91.6191 11.5771C90.7291 11.5771 89.9618 11.7942 89.3173 12.2285C88.6765 12.6567 88.1565 13.2424 87.8073 13.9295H95.3078C95.0499 13.1933 94.5442 12.5697 93.8772 12.1652C93.1929 11.7653 92.4115 11.5618 91.6191 11.5771Z" fill="white"/>
<path d="M103.853 15.8678L98.2285 8.0498H103.535L106.619 12.4992L109.637 8.0498H114.754L109.256 15.8989L115.198 23.9402H109.892L106.554 19.2998L103.314 23.9402H98.0076L103.853 15.8678Z" fill="white"/>
<path d="M48.1856 0.740234H43.8318V5.09407H48.1856V0.740234Z" fill="white"/>
<path opacity="0.7" d="M16.2585 3.48846C16.1954 3.36108 16.2476 3.2067 16.3749 3.14365L20.9992 0.854703C21.1266 0.79165 21.281 0.8438 21.344 0.971183L23.633 5.59545C23.696 5.72283 23.6439 5.87721 23.5165 5.94026L18.8922 8.2292C18.7648 8.29226 18.6104 8.24011 18.5474 8.11272L16.2585 3.48846Z" fill="#409FFF"/>
<path opacity="0.3" d="M14.9875 18.5288C14.9875 18.3867 15.1028 18.2715 15.2449 18.2715H20.4047C20.5468 18.2715 20.662 18.3867 20.662 18.5288V23.6886C20.662 23.8307 20.5468 23.946 20.4047 23.946H15.2449C15.1028 23.946 14.9875 23.8307 14.9875 23.6886V18.5288Z" fill="#409FFF"/>
<path opacity="0.7" d="M14.9875 11.4361C14.9875 11.2939 15.1028 11.1787 15.2449 11.1787H20.4047C20.5468 11.1787 20.662 11.2939 20.662 11.4361V16.5958C20.662 16.738 20.5468 16.8532 20.4047 16.8532H15.2449C15.1028 16.8532 14.9875 16.738 14.9875 16.5958V11.4361Z" fill="#409FFF"/>
<path d="M7.89453 18.5288C7.89453 18.3867 8.00975 18.2715 8.15189 18.2715H13.3116C13.4538 18.2715 13.569 18.3867 13.569 18.5288V23.6886C13.569 23.8307 13.4538 23.946 13.3116 23.946H8.15189C8.00975 23.946 7.89453 23.8307 7.89453 23.6886V18.5288Z" fill="#409FFF"/>
<path opacity="0.3" d="M7.89453 11.4361C7.89453 11.2939 8.00975 11.1787 8.15189 11.1787H13.3116C13.4538 11.1787 13.569 11.2939 13.569 11.4361V16.5958C13.569 16.738 13.4538 16.8532 13.3116 16.8532H8.15189C8.00975 16.8532 7.89453 16.738 7.89453 16.5958V11.4361Z" fill="#409FFF"/>
<path opacity="0.7" d="M7.89453 4.34329C7.89453 4.20116 8.00975 4.08594 8.15189 4.08594H13.3116C13.4538 4.08594 13.569 4.20116 13.569 4.34329V9.50305C13.569 9.64518 13.4538 9.76041 13.3116 9.76041H8.15189C8.00975 9.76041 7.89453 9.64518 7.89453 9.50305V4.34329Z" fill="#409FFF"/>
<path d="M0.801514 18.5288C0.801514 18.3867 0.916736 18.2715 1.05887 18.2715H6.21863C6.36076 18.2715 6.47598 18.3867 6.47598 18.5288V23.6886C6.47598 23.8307 6.36076 23.946 6.21862 23.946H1.05887C0.916736 23.946 0.801514 23.8307 0.801514 23.6886V18.5288Z" fill="#409FFF"/>
<path d="M0.801514 11.4361C0.801514 11.2939 0.916736 11.1787 1.05887 11.1787H6.21863C6.36076 11.1787 6.47598 11.2939 6.47598 11.4361V16.5958C6.47598 16.738 6.36076 16.8532 6.21862 16.8532H1.05887C0.916736 16.8532 0.801514 16.738 0.801514 16.5958V11.4361Z" fill="#409FFF"/>
<path opacity="0.3" d="M0.801514 4.34329C0.801514 4.20116 0.916736 4.08594 1.05887 4.08594H6.21863C6.36076 4.08594 6.47598 4.20116 6.47598 4.34329V9.50305C6.47598 9.64518 6.36076 9.76041 6.21862 9.76041H1.05887C0.916736 9.76041 0.801514 9.64518 0.801514 9.50305V4.34329Z" fill="#409FFF"/>
</svg>
