<svg width="81" height="81" viewBox="0 0 81 81" fill="none" xmlns="http://www.w3.org/2000/svg">
<path opacity="0.3" d="M17.7822 49.8682C30.1366 28.4761 45.2032 15.5055 66.365 11.9095C66.7814 11.8352 67.2096 11.8626 67.6132 11.9894C68.0167 12.1162 68.3837 12.3386 68.6828 12.6377C68.9819 12.9368 69.2044 13.3038 69.3312 13.7074C69.458 14.1109 69.4854 14.5392 69.4111 14.9556C65.815 36.1174 52.8445 51.184 31.4524 63.5384L17.7822 49.8682ZM17.1056 56.0267L13.6909 64.9837C13.5499 65.3533 13.5189 65.7558 13.6015 66.1426C13.6842 66.5295 13.877 66.8841 14.1567 67.1638C14.4364 67.4436 14.7911 67.6364 15.1779 67.719C15.5648 67.8017 15.9672 67.7706 16.3368 67.6297L25.2996 64.2121L17.1056 56.0267ZM53.6161 23.38C52.7619 23.38 51.9269 23.6333 51.2167 24.1078C50.5065 24.5824 49.953 25.2569 49.6261 26.046C49.2992 26.8352 49.2137 27.7035 49.3803 28.5413C49.547 29.379 49.9583 30.1485 50.5623 30.7525C51.1663 31.3565 51.9358 31.7678 52.7735 31.9345C53.6113 32.1011 54.4796 32.0156 55.2688 31.6887C56.0579 31.3618 56.7324 30.8083 57.207 30.0981C57.6815 29.3879 57.9348 28.5529 57.9348 27.6987C57.9348 26.5533 57.4798 25.4548 56.6699 24.6449C55.86 23.835 54.7615 23.38 53.6161 23.38Z" fill="#409FFF"/>
<path d="M17.7821 49.8681L12.5795 44.6655C12.3141 44.4001 12.1138 44.0769 11.9943 43.7211C11.8747 43.3653 11.8392 42.9867 11.8905 42.6149C11.9419 42.2431 12.0786 41.8882 12.2901 41.5781C12.5015 41.268 12.7819 41.0111 13.1093 40.8276L32.4629 29.9761C26.7631 35.9721 21.8316 42.6541 17.7821 49.8681V49.8681ZM31.4466 63.5326L36.6492 68.7352C36.9146 69.0006 37.2378 69.2009 37.5936 69.3205C37.9494 69.44 38.328 69.4755 38.6998 69.4242C39.0716 69.3728 39.4265 69.2361 39.7366 69.0247C40.0467 68.8132 40.3036 68.5328 40.4871 68.2054L51.3386 48.8489C45.3434 54.5505 38.6613 59.483 31.4466 63.5326V63.5326ZM26.3793 58.4624L42.3384 42.5033C42.7842 42.0302 43.0282 41.4021 43.0186 40.7522C43.009 40.1023 42.7465 39.4817 42.2869 39.022C41.8273 38.5624 41.2067 38.3 40.5568 38.2903C39.9068 38.2807 39.2787 38.5247 38.8057 38.9705L22.8466 54.9297L26.3793 58.4624Z" fill="#409FFF"/>
</svg>
