<svg width="109" height="37" viewBox="0 0 109 37" fill="none" xmlns="http://www.w3.org/2000/svg">
<path d="M20.8951 13.6616L24.9995 17.7664L29.1038 13.6616C29.2025 13.5713 29.3323 13.5225 29.4661 13.5255C29.5998 13.5285 29.7273 13.5829 29.8219 13.6776C29.9165 13.7722 29.971 13.8997 29.974 14.0335C29.9769 14.1673 29.9282 14.297 29.8378 14.3958L25.7356 18.5005L29.8389 22.6042C29.889 22.652 29.9291 22.7093 29.9567 22.7728C29.9844 22.8363 29.9991 22.9047 30 22.974C30.0008 23.0432 29.9878 23.1119 29.9617 23.1761C29.9357 23.2402 29.897 23.2985 29.8481 23.3476C29.7992 23.3966 29.7409 23.4353 29.6768 23.4615C29.6127 23.4876 29.544 23.5007 29.4748 23.5C29.4055 23.4992 29.3371 23.4846 29.2736 23.457C29.2101 23.4295 29.1527 23.3895 29.1049 23.3394L24.9995 19.2357L20.8951 23.3404C20.7964 23.4308 20.6667 23.4796 20.5329 23.4766C20.3991 23.4736 20.2716 23.4192 20.177 23.3245C20.0824 23.2299 20.0279 23.1024 20.025 22.9686C20.022 22.8348 20.0708 22.7051 20.1611 22.6063L24.2654 18.5016L20.1611 14.3958C20.111 14.348 20.0709 14.2907 20.0433 14.2272C20.0156 14.1637 20.0009 14.0953 20 14.026C19.9992 13.9568 20.0122 13.8881 20.0383 13.8239C20.0643 13.7598 20.103 13.7015 20.1519 13.6524C20.2008 13.6034 20.2591 13.5647 20.3232 13.5385C20.3873 13.5124 20.456 13.4993 20.5252 13.5C20.5945 13.5008 20.6629 13.5154 20.7264 13.543C20.7899 13.5705 20.8473 13.6105 20.8951 13.6606V13.6616Z" fill="#409FFF"/>
<path d="M38.49 18.1C38.49 17.1387 38.7047 16.28 39.134 15.524C39.5727 14.7587 40.1653 14.166 40.912 13.746C41.668 13.3167 42.5127 13.102 43.446 13.102C44.538 13.102 45.4947 13.382 46.316 13.942C47.1373 14.502 47.7113 15.2767 48.038 16.266H45.784C45.56 15.7993 45.2427 15.4493 44.832 15.216C44.4307 14.9827 43.964 14.866 43.432 14.866C42.8627 14.866 42.354 15.0013 41.906 15.272C41.4673 15.5333 41.122 15.9067 40.87 16.392C40.6273 16.8773 40.506 17.4467 40.506 18.1C40.506 18.744 40.6273 19.3133 40.87 19.808C41.122 20.2933 41.4673 20.6713 41.906 20.942C42.354 21.2033 42.8627 21.334 43.432 21.334C43.964 21.334 44.4307 21.2173 44.832 20.984C45.2427 20.7413 45.56 20.3867 45.784 19.92H48.038C47.7113 20.9187 47.1373 21.698 46.316 22.258C45.504 22.8087 44.5473 23.084 43.446 23.084C42.5127 23.084 41.668 22.874 40.912 22.454C40.1653 22.0247 39.5727 21.432 39.134 20.676C38.7047 19.92 38.49 19.0613 38.49 18.1ZM49.2081 19.094C49.2081 18.31 49.3621 17.6147 49.6701 17.008C49.9874 16.4013 50.4121 15.9347 50.9441 15.608C51.4854 15.2813 52.0874 15.118 52.7501 15.118C53.3288 15.118 53.8328 15.2347 54.2621 15.468C54.7008 15.7013 55.0508 15.9953 55.3121 16.35V15.244H57.2861V23H55.3121V21.866C55.0601 22.23 54.7101 22.5333 54.2621 22.776C53.8234 23.0093 53.3148 23.126 52.7361 23.126C52.0828 23.126 51.4854 22.958 50.9441 22.622C50.4121 22.286 49.9874 21.8147 49.6701 21.208C49.3621 20.592 49.2081 19.8873 49.2081 19.094ZM55.3121 19.122C55.3121 18.646 55.2188 18.24 55.0321 17.904C54.8454 17.5587 54.5934 17.2973 54.2761 17.12C53.9588 16.9333 53.6181 16.84 53.2541 16.84C52.8901 16.84 52.5541 16.9287 52.2461 17.106C51.9381 17.2833 51.6861 17.5447 51.4901 17.89C51.3034 18.226 51.2101 18.6273 51.2101 19.094C51.2101 19.5607 51.3034 19.9713 51.4901 20.326C51.6861 20.6713 51.9381 20.9373 52.2461 21.124C52.5634 21.3107 52.8994 21.404 53.2541 21.404C53.6181 21.404 53.9588 21.3153 54.2761 21.138C54.5934 20.9513 54.8454 20.69 55.0321 20.354C55.2188 20.0087 55.3121 19.598 55.3121 19.122ZM63.4984 15.132C64.4224 15.132 65.169 15.426 65.7384 16.014C66.3077 16.5927 66.5924 17.4047 66.5924 18.45V23H64.6324V18.716C64.6324 18.1 64.4784 17.6287 64.1704 17.302C63.8624 16.966 63.4424 16.798 62.9104 16.798C62.369 16.798 61.9397 16.966 61.6224 17.302C61.3144 17.6287 61.1604 18.1 61.1604 18.716V23H59.2004V15.244H61.1604V16.21C61.4217 15.874 61.753 15.6127 62.1544 15.426C62.565 15.23 63.013 15.132 63.4984 15.132ZM67.9522 19.122C67.9522 18.3193 68.1156 17.6193 68.4422 17.022C68.7689 16.4153 69.2216 15.9487 69.8002 15.622C70.3789 15.286 71.0416 15.118 71.7882 15.118C72.7496 15.118 73.5429 15.3607 74.1682 15.846C74.8029 16.322 75.2276 16.994 75.4422 17.862H73.3282C73.2162 17.526 73.0249 17.2647 72.7542 17.078C72.4929 16.882 72.1662 16.784 71.7742 16.784C71.2142 16.784 70.7709 16.9893 70.4442 17.4C70.1176 17.8013 69.9542 18.3753 69.9542 19.122C69.9542 19.8593 70.1176 20.4333 70.4442 20.844C70.7709 21.2453 71.2142 21.446 71.7742 21.446C72.5676 21.446 73.0856 21.0913 73.3282 20.382H75.4422C75.2276 21.222 74.8029 21.8893 74.1682 22.384C73.5336 22.8787 72.7402 23.126 71.7882 23.126C71.0416 23.126 70.3789 22.9627 69.8002 22.636C69.2216 22.3 68.7689 21.8333 68.4422 21.236C68.1156 20.6293 67.9522 19.9247 67.9522 19.122ZM84.0881 18.954C84.0881 19.234 84.0694 19.486 84.0321 19.71H78.3621C78.4088 20.27 78.6048 20.7087 78.9501 21.026C79.2954 21.3433 79.7201 21.502 80.2241 21.502C80.9521 21.502 81.4701 21.1893 81.7781 20.564H83.8921C83.6681 21.3107 83.2388 21.9267 82.6041 22.412C81.9694 22.888 81.1901 23.126 80.2661 23.126C79.5194 23.126 78.8474 22.9627 78.2501 22.636C77.6621 22.3 77.2001 21.8287 76.8641 21.222C76.5374 20.6153 76.3741 19.9153 76.3741 19.122C76.3741 18.3193 76.5374 17.6147 76.8641 17.008C77.1908 16.4013 77.6481 15.9347 78.2361 15.608C78.8241 15.2813 79.5008 15.118 80.2661 15.118C81.0034 15.118 81.6614 15.2767 82.2401 15.594C82.8281 15.9113 83.2808 16.364 83.5981 16.952C83.9248 17.5307 84.0881 18.198 84.0881 18.954ZM82.0581 18.394C82.0488 17.89 81.8668 17.4887 81.5121 17.19C81.1574 16.882 80.7234 16.728 80.2101 16.728C79.7248 16.728 79.3141 16.8773 78.9781 17.176C78.6514 17.4653 78.4508 17.8713 78.3761 18.394H82.0581ZM87.4787 12.64V23H85.5187V12.64H87.4787Z" fill="#409FFF"/>
<rect x="0.5" y="0.5" width="108" height="36" rx="18" stroke="#409FFF"/>
</svg>
