<svg version="1.1" viewBox="0 0 24 24" xmlns="http://www.w3.org/2000/svg">
<g fill="none" fill-rule="evenodd">
<rect width="24" height="24"/>
<rect transform="translate(12 7) rotate(180) translate(-12 -7)" x="11" y="1" width="2" height="12" rx="1" fill="#fff"/>
<path d="m17 8c-0.55228 0-1-0.44772-1-1s0.44772-1 1-1h1c2.2091 0 4 1.7909 4 4v8c0 2.2091-1.7909 4-4 4h-12c-2.2091 0-4-1.7909-4-4v-8.0069c0-2.2091 1.7909-4 4-4h1c0.55228 0 1 0.44772 1 1s-0.44772 1-1 1h-1c-1.1046 0-2 0.89543-2 2v8.0069c0 1.1046 0.89543 2 2 2h12c1.1046 0 2-0.89543 2-2v-8c0-1.1046-0.89543-2-2-2h-1z" fill="#fff" fill-rule="nonzero"/>
<path d="m14.293 10.293c0.39052-0.39052 1.0237-0.39052 1.4142 0 0.39052 0.39052 0.39052 1.0237 0 1.4142l-3 3c-0.39052 0.39052-1.0237 0.39052-1.4142 0l-3-3c-0.39052-0.39052-0.39052-1.0237 0-1.4142 0.39052-0.39052 1.0237-0.39052 1.4142 0l2.2929 2.2929 2.2929-2.2929z" fill="#fff" fill-rule="nonzero"/>
</g>
</svg>

